<svg width="55" height="52" viewBox="0 0 55 52" fill="none" xmlns="http://www.w3.org/2000/svg">
<path d="M53.2845 28.5825C49.9839 27.2368 43.8658 21.9072 33.1016 29.9176C30.272 28.3476 25.0285 24.5774 16.9553 31.2527C16.0121 27.4397 15.8237 18.7618 16.9553 11.2268C17.4262 10.1053 19.3692 9.31095 25.0285 15.2319L31.7561 8.55665C31.2852 5.64088 27.7195 1.88135 16.9553 1.88135C12.9187 1.88135 9.23469 5.30578 7.53664 11.2268C5.41475 17.2813 2.15454 31.2527 2.15454 39.263C2.15454 41.7302 5.51835 47.2734 18.3008 47.2734C20.9919 47.2734 28.8632 47.5738 38.4837 43.2682L46.5569 49.9435" stroke="#DA2348" stroke-width="3.0678" stroke-linecap="round" stroke-linejoin="round"/>
</svg>
